<svg xmlns="http://www.w3.org/2000/svg" xmlns:xlink="http://www.w3.org/1999/xlink" id="visual" width="1920" height="100" version="1.1" viewBox="0 0 1920 100"><path fill="#fce53d" stroke-linecap="square" stroke-linejoin="bevel" d="M0 49L96 35L192 62L288 44L384 55L480 45L576 36L672 40L768 45L864 55L960 55L1056 57L1152 36L1248 62L1344 34L1440 36L1536 45L1632 56L1728 44L1824 56L1920 57L1920 101L1824 101L1728 101L1632 101L1536 101L1440 101L1344 101L1248 101L1152 101L1056 101L960 101L864 101L768 101L672 101L576 101L480 101L384 101L288 101L192 101L96 101L0 101Z"/></svg>